<svg height="512" viewBox="0 0 64 64" width="512" xmlns="http://www.w3.org/2000/svg"><g id="Layer_29" data-name="Layer 29"><path d="m49 63v-14a4 4 0 0 0 -4-4v-5h4.09a12.9 12.9 0 0 1 10.74 5.75 12.85 12.85 0 0 1 2.17 7.16v10.09z" fill="#3279ea"/><g fill="#7aadf9"><path d="m57 52h2v10h-2z"/><path d="m55 54h-2v-3.62a6.93 6.93 0 0 0 -4.37-6.45l.74-1.86a8.91 8.91 0 0 1 5.63 8.31z"/><path d="m57.59 37h2.83v2h-2.83z" transform="matrix(.707 -.707 .707 .707 -9.59 52.85)"/><path d="m55 30.59h2v2.83h-2z" transform="matrix(.707 -.707 .707 .707 -6.23 48.97)"/></g><path d="m10 55a27.37 27.37 0 0 1 -8-19.3v-17.59a15.85 15.85 0 0 1 5.25-11.8l.13-.11a16.25 16.25 0 0 1 10.92-4.2h19a11.64 11.64 0 0 1 5.18 1.22 11.59 11.59 0 0 0 10.94-.3l1.58-.92a12 12 0 0 1 -12 12h-17.29a6.68 6.68 0 0 0 -6.71 6.69v7.31h-1.5a5.5 5.5 0 0 0 -5.5 5.5 5.5 5.5 0 0 0 5.5 5.5h1.5v8a8 8 0 0 1 -8 8z" fill="#9da1bf"/><path d="m38.53 40h4.47v-4h8a9.67 9.67 0 0 0 -2.83-6.83l-5.17-5.17v-10h-17.29a6.68 6.68 0 0 0 -6.71 6.69v7.31h-1.5a5.5 5.5 0 1 0 0 11h1.5v8a8 8 0 0 1 -8 8h-1v8h18v-7h6a9 9 0 0 0 9-9h-4.5a3.5 3.5 0 0 1 0-7z" fill="#fbe1ca"/><path d="m33.65 26.79-1.25-1.56 4-3.22-4-3.22 1.25-1.56 5 4a1 1 0 0 1 0 1.56z" fill="#bca998"/></g></svg>