<svg height="512" viewBox="0 0 64 64" width="512" xmlns="http://www.w3.org/2000/svg"><g id="Layer_19" data-name="Layer 19"><path d="m41 40a11.94 11.94 0 0 0 0-15.9l2-4.1-4.21 2.11a12 12 0 0 0 -13.58 0l-4.21-2.11 2 4.05a11.94 11.94 0 0 0 0 15.95l-2 4 4.21-2.11a12 12 0 0 0 13.58 0l4.21 2.11z" fill="#3279ea"/><path d="m50 12h12a0 0 0 0 1 0 0v6a2 2 0 0 1 -2 2h-8a2 2 0 0 1 -2-2v-6a0 0 0 0 1 0 0z" fill="#3279ea" transform="matrix(-1 0 0 -1 112 32)"/><path d="m58 15h2v5h-2z" fill="#7aadf9"/><path d="m52 15h2v5h-2z" fill="#7aadf9"/><rect fill="#7aadf9" height="8" rx="3" transform="matrix(-1 0 0 -1 112 12)" width="6" x="53" y="2"/><path d="m58.29 36.29-1.29 1.3v-14.59h-2v14.59l-1.29-1.3-1.42 1.42 3 3a1 1 0 0 0 1.42 0l3-3z" fill="#7aadf9"/><path d="m25.71 52.71-1.42-1.42-3 3a1 1 0 0 0 0 1.42l3 3 1.42-1.42-1.3-1.29h17.59v-2h-17.59z" fill="#7aadf9"/><path d="m39.71 5.29-1.42 1.42 1.3 1.29h-17.59v2h17.59l-1.3 1.29 1.42 1.42 3-3a1 1 0 0 0 0-1.42z" fill="#7aadf9"/><path d="m7.29 22.29-3 3 1.42 1.42 1.29-1.3v14.59h2v-14.59l1.29 1.3 1.42-1.42-3-3a1 1 0 0 0 -1.42 0z" fill="#7aadf9"/><path d="m27.65 32.29 4.59-4.58a2.37 2.37 0 0 1 1.7-.71 2.39 2.39 0 0 1 1.71.71l.59.58a2.44 2.44 0 0 1 .7 1.71 2.44 2.44 0 0 1 -.7 1.71l-4.59 4.58a2.39 2.39 0 0 1 -1.71.71 2.37 2.37 0 0 1 -1.7-.71l-.59-.58a2.45 2.45 0 0 1 -.71-1.71 2.45 2.45 0 0 1 .71-1.71z" fill="#e2e7f6"/><g fill="#7aadf9"><path d="m28.24 36.29-.59-.58a3 3 0 0 1 -.34-.45l-2.07 2 1.4 1.42 2.09-2.05a2.43 2.43 0 0 1 -.49-.34z"/><path d="m29.17 30.77-2.53-2.48-1.4 1.42 2.52 2.47z"/><path d="m32.17 27.77-2.53-2.48-1.4 1.42 2.52 2.47z"/><path d="m35.65 27.71.59.58a2.59 2.59 0 0 1 .37.5l2-2.09-1.43-1.4-2 2.06a2.18 2.18 0 0 1 .47.35z"/><path d="m36.17 31.77-1.41 1.41 2.47 2.52 1.43-1.4z"/><path d="m31.76 36.18 2.47 2.52 1.43-1.4-2.49-2.53z"/><path d="m30.94 22h2v2h-2z"/><path d="m29.94 39h2v2h-2z"/><path d="m38.94 31h2v2h-2z"/><path d="m22.94 31h2v2h-2z"/></g><path d="m50 54h12a0 0 0 0 1 0 0v6a2 2 0 0 1 -2 2h-8a2 2 0 0 1 -2-2v-6a0 0 0 0 1 0 0z" fill="#3279ea" transform="matrix(-1 0 0 -1 112 116)"/><path d="m58 57h2v5h-2z" fill="#7aadf9"/><path d="m52 57h2v5h-2z" fill="#7aadf9"/><rect fill="#7aadf9" height="8" rx="3" transform="matrix(-1 0 0 -1 112 96)" width="6" x="53" y="44"/><path d="m2 54h12a0 0 0 0 1 0 0v6a2 2 0 0 1 -2 2h-8a2 2 0 0 1 -2-2v-6a0 0 0 0 1 0 0z" fill="#3279ea" transform="matrix(-1 0 0 -1 16 116)"/><path d="m10 57h2v5h-2z" fill="#7aadf9"/><path d="m4 57h2v5h-2z" fill="#7aadf9"/><rect fill="#7aadf9" height="8" rx="3" transform="matrix(-1 0 0 -1 16 96)" width="6" x="5" y="44"/><path d="m2 12h12a0 0 0 0 1 0 0v6a2 2 0 0 1 -2 2h-8a2 2 0 0 1 -2-2v-6a0 0 0 0 1 0 0z" fill="#3279ea" transform="matrix(-1 0 0 -1 16 32)"/><path d="m10 15h2v5h-2z" fill="#7aadf9"/><path d="m4 15h2v5h-2z" fill="#7aadf9"/><rect fill="#7aadf9" height="8" rx="3" transform="matrix(-1 0 0 -1 16 12)" width="6" x="5" y="2"/></g></svg>