<svg height="512" viewBox="0 0 64 64" width="512" xmlns="http://www.w3.org/2000/svg"><g id="Layer_26" data-name="Layer 26"><path d="m24 42h3l10.25-8.38a2.7 2.7 0 0 1 1.75-.62h.29a2.73 2.73 0 0 1 2.71 2.73 2.71 2.71 0 0 1 -1 2.09l-12 10.18h-16l-11 7v-13l9.9-5.77a8.91 8.91 0 0 1 4.53-1.23h.25a9.07 9.07 0 0 1 2.59.38l7.1 2.13a2.29 2.29 0 0 1 1.63 2.2 2.3 2.3 0 0 1 -2.29 2.29h-6.71" fill="#fbe1ca"/><path d="m29 48h-7v11a3 3 0 0 0 6 0v-4.5a2.5 2.5 0 0 1 5 0v2a2.5 2.5 0 0 0 5 0v-16.12z" fill="#3279ea"/><path d="m11.9 36.23a8.91 8.91 0 0 1 4.53-1.23h.25a9.12 9.12 0 0 1 2.59.38l7.1 2.13a2.29 2.29 0 0 1 -.66 4.49h1.29l9.59-7.85-.12-.15a6 6 0 0 0 -4.47-2h-.09a6 6 0 0 0 -10.91-2.32 7 7 0 0 0 -10 6.32c0 .24 0 .48.05.72z" fill="#3279ea"/><circle cx="12" cy="21" fill="#7aadf9" r="3"/><circle cx="28" cy="13" fill="#7aadf9" r="4"/><path d="m54 10h8v11h-8z" fill="#e2e7f6"/><path d="m54 19h-8a2 2 0 0 0 -2 2v3h-8v-5a7 7 0 0 1 7-7h11z" fill="#c8cded"/><path d="m44 6h4v6h-4z" fill="#e2e7f6"/><path d="m41 2h10v4h-10z" fill="#c8cded"/><circle cx="47" cy="30" fill="#7aadf9" r="2"/></g></svg>