<svg height="512" viewBox="0 0 64 64" width="512" xmlns="http://www.w3.org/2000/svg"><g id="people-virus-mask-protect-covid19"><path d="m15 51h34a10 10 0 0 1 10 10 0 0 0 0 1 0 0h-54a0 0 0 0 1 0 0 10 10 0 0 1 10-10z" fill="#006df0"/><path d="m49 51h-2a10 10 0 0 1 10 10h2a10 10 0 0 0 -10-10z" fill="#005ece"/><path d="m27 11a3 3 0 0 0 -3 3 3 3 0 0 1 3-3z" fill="#9bc9ff"/><path d="m24 14a3 3 0 0 1 3-3h18a6 6 0 0 0 6-6v-2h-26a10 10 0 0 0 -10 10v18.2a13.984 13.984 0 0 0 2.145 7.438 7.982 7.982 0 0 0 1.559 1.8l5.296 4.562z" fill="#58595b"/><path d="m22 48.988v.012c.006.008.005 0 0-.012z" fill="#414042"/><path d="m49 3a6 6 0 0 1 -6 6h-18a3 3 0 0 0 -3 3v31.278l2 1.722v-31a3 3 0 0 1 3-3h18a6 6 0 0 0 6-6v-2z" fill="#414042"/><path d="m48 24-1-3v-6a4 4 0 0 0 -4-4h-16a3 3 0 0 0 -3 3v37a12.148 12.148 0 0 0 16 0v-5h2a2 2 0 0 0 2-2v-1.921a7.989 7.989 0 0 0 4.166-5.689l1.834-10.39a2 2 0 0 0 -2-2z" fill="#ffbcab"/><path d="m48 24-1-3v-6a4 4 0 0 0 -4-4h-2a4 4 0 0 1 4 4v6l1 3a2 2 0 0 1 2 2l-1.834 10.39a7.989 7.989 0 0 1 -4.166 5.689v1.921a2 2 0 0 1 -2 2h2a2 2 0 0 0 2-2v-1.921a7.989 7.989 0 0 0 4.166-5.689l1.834-10.39a2 2 0 0 0 -2-2z" fill="#ff9478"/><path d="m38 50.036a2.042 2.042 0 0 1 -.852 1.645 12.119 12.119 0 0 1 -6.148 2.281 12.131 12.131 0 0 0 9-2.962v-5h-2z" fill="#ff9478"/><path d="m24 33h-.593a3 3 0 0 1 -2.929-2.349l-.937-4.217a2 2 0 0 1 1.952-2.434h2.507z" fill="#dfa596"/><path d="m42.536 18.878.171-.171a1 1 0 0 0 -1.414-1.414l-.171.171a3 3 0 0 1 -4.244 0l-.171-.171a1 1 0 0 0 -1.414 1.414l.171.171a5 5 0 0 0 7.072 0z" fill="#58595b"/><path d="m36.294 25.044-12.294-3.782v2.092l11.706 3.6a1 1 0 1 0 .588-1.912z" fill="#005ece"/><path d="m36.359 38.066-12.359-4.753v2.143l11.641 4.478a1 1 0 0 0 .718-1.868z" fill="#005ece"/><path d="m48 24h-11a2 2 0 0 0 -2 2v13a4 4 0 0 0 4 4h1.288a8 8 0 0 0 7.878-6.61l1.834-10.39a2 2 0 0 0 -2-2z" fill="#57a4ff"/><path d="m48 24h-.353l-1.481 8.39a8 8 0 0 1 -7.878 6.61h-1.288a3.955 3.955 0 0 1 -2-.555v.555a4 4 0 0 0 4 4h1.288a8 8 0 0 0 7.878-6.61l1.834-10.39a2 2 0 0 0 -2-2z" fill="#2488ff"/></g></svg>