<svg height="512" viewBox="0 0 64 64" width="512" xmlns="http://www.w3.org/2000/svg"><g id="Layer_7" data-name="Layer 7"><path d="m8 32v26h48v-26l-24-24z" fill="#f3f5fb"/><path d="m62 32h-6l-24-24-24 24h-6l30-30z" fill="#9da1bf"/><circle cx="51" cy="17" fill="#3279ea" r="10"/><path d="m6 58h52v4h-52z" fill="#9da1bf"/><path d="m40 32v4a8 8 0 0 1 -8 8 8 8 0 0 1 -8-8v-4a10 10 0 0 0 8-4 10 10 0 0 0 8 4z" fill="#fbe1ca"/><path d="m24 36v-4h-1a3 3 0 0 0 0 6h1.26a8.24 8.24 0 0 1 -.26-2z" fill="#fbe1ca"/><path d="m32 20a10 10 0 0 0 -10 10v2.18a3 3 0 0 1 1-.18h1a10 10 0 0 0 8-4 10 10 0 0 0 8 4h1a3 3 0 0 1 1 .18v-2.18a10 10 0 0 0 -10-10z" fill="#9da1bf"/><path d="m41 32h-1v4a8.24 8.24 0 0 1 -.26 2h1.26a3 3 0 0 0 0-6z" fill="#fbe1ca"/><path d="m47 58v-4a10 10 0 0 0 -10-10h-10a10 10 0 0 0 -10 10v4z" fill="#3279ea"/><path d="m22 51h2v7h-2z" fill="#7aadf9"/><path d="m40 51h2v7h-2z" fill="#7aadf9"/><path d="m28 44a4 4 0 0 0 4 4 4 4 0 0 0 4-4z" fill="#fbe1ca"/><path d="m50 22a1 1 0 0 1 -.71-.29l-3-3 1.42-1.42 2.06 2.07 4.36-7.85 1.74 1-5 9a1 1 0 0 1 -.73.5z" fill="#7aadf9"/></g></svg>