<svg id="Layer_3" enable-background="new 0 0 64 64" height="512" viewBox="0 0 64 64" width="512" xmlns="http://www.w3.org/2000/svg"><g><g><path d="m31 2h2v4h-2z" fill="#7aadf9"/></g><g><path d="m31 22h2v4h-2z" fill="#7aadf9"/></g><g><path d="m20 13h4v2h-4z" fill="#7aadf9"/></g><g><path d="m40 13h4v2h-4z" fill="#7aadf9"/></g><circle cx="32" cy="14" fill="#2862be" r="8"/><path d="m34.228 56.363-4.228 5.637-14-10 4.5-6" fill="#f2b9a1"/><path d="m34.228 56.363-4.228 5.637-14-10 4.5-6" fill="#f2b9a1"/><path d="m18.605 53.861 1.627 1.162 4.418-5.89-1.596-1.205z" fill="#f7c9b8"/><path d="m22.186 56.419 1.628 1.162 4.348-5.797-1.596-1.205z" fill="#f7c9b8"/><path d="m25.605 58.861 1.627 1.162 4.283-5.709-1.597-1.205z" fill="#f7c9b8"/><path d="m1 47h16l19 14 2.895-3.86 1.105.86 2.895-3.86 1.105.86 2.895-3.86 1.105.86 3-4-17-13h-9v-2h-24" fill="#fbe1ca"/><g fill="#f2b9a1"><path d="m39.614 44.21-1.228 1.58 7.908 6.151.601-.801 1.105.86.6-.8z"/><path d="m35.614 47.21-1.229 1.579 7.909 6.151c.197-.263.6-.801.6-.801l1.106.861.6-.8z"/><path d="m63 48h-12l-17-13h-9v-4h11l9 3h18"/><path d="m31.614 50.21-1.229 1.579 7.909 6.151.6-.8 1.106.86s.403-.537.6-.8z"/></g><g><path d="m32 23c-4.963 0-9-4.038-9-9s4.037-9 9-9 9 4.038 9 9-4.037 9-9 9zm0-16c-3.859 0-7 3.14-7 7s3.141 7 7 7 7-3.14 7-7-3.141-7-7-7z" fill="#3279ea"/></g><g><path d="m29 1h6v2h-6z" fill="#3279ea"/></g><g><path d="m29 25h6v2h-6z" fill="#3279ea"/></g><g><path d="m19 11h2v6h-2z" fill="#3279ea"/></g><g><path d="m43 11h2v6h-2z" fill="#3279ea"/></g><g><path d="m25.25 5.068h2v6.364h-2z" fill="#7aadf9" transform="matrix(.707 -.707 .707 .707 1.855 20.978)"/></g><g><path d="m21.172 5h5.657v2h-5.657z" fill="#3279ea" transform="matrix(.707 -.707 .707 .707 2.787 18.728)"/></g><g><path d="m34.568 7.25h6.364v2h-6.364z" fill="#7aadf9" transform="matrix(.707 -.707 .707 .707 5.223 29.11)"/></g><g><path d="m39 3.172h2v5.657h-2z" fill="#3279ea" transform="matrix(.707 -.707 .707 .707 7.473 30.042)"/></g><g><path d="m23.068 18.75h6.364v2h-6.364z" fill="#7aadf9" transform="matrix(.707 -.707 .707 .707 -6.277 24.346)"/></g><g><path d="m23 19.172h2v5.657h-2z" fill="#3279ea" transform="matrix(.707 -.707 .707 .707 -8.527 23.414)"/></g><g><path d="m36.75 16.568h2v6.364h-2z" fill="#7aadf9" transform="matrix(.707 -.707 .707 .707 -2.909 32.478)"/></g><g><path d="m37.172 21h5.657v2h-5.657z" fill="#3279ea" transform="matrix(.707 -.707 .707 .707 -3.841 34.728)"/></g><g><path d="m27 13h2v2h-2z" fill="#7aadf9"/></g><g><path d="m30 9h2v2h-2z" fill="#3279ea"/></g><g><path d="m32 13h2v2h-2z" fill="#7aadf9"/></g><g><path d="m31 18h2v2h-2z" fill="#3279ea"/></g><g><path d="m36 14h2v2h-2z" fill="#7aadf9"/></g><g><path d="m7 11h2v3h-2z" fill="#7aadf9"/></g><g><path d="m7 22h2v3h-2z" fill="#7aadf9"/></g><g><path d="m1 17h3v2h-3z" fill="#7aadf9"/></g><g><path d="m12 17h3v2h-3z" fill="#7aadf9"/></g><g><path d="m2.611 20.889h3v2h-3z" fill="#2862be" transform="matrix(.707 -.707 .707 .707 -14.274 9.318)"/></g><g><path d="m10.389 13.111h3v2h-3z" fill="#2862be" transform="matrix(.707 -.707 .707 .707 -6.496 12.54)"/></g><g><path d="m10.889 20.389h2v3h-2z" fill="#2862be" transform="matrix(.707 -.707 .707 .707 -11.997 14.824)"/></g><g><path d="m3.111 12.611h2v3h-2z" fill="#2862be" transform="matrix(.707 -.707 .707 .707 -8.776 7.043)"/></g><circle cx="8" cy="18" fill="#2862be" r="4"/><g><path d="m8 23c-2.757 0-5-2.243-5-5s2.243-5 5-5 5 2.243 5 5-2.243 5-5 5zm0-8c-1.654 0-3 1.346-3 3s1.346 3 3 3 3-1.346 3-3-1.346-3-3-3z" fill="#3279ea"/></g><g><path d="m7 17h2v2h-2z" fill="#7aadf9"/></g><g><path d="m55 17h2v3h-2z" fill="#7aadf9"/></g><g><path d="m55 28h2v3h-2z" fill="#7aadf9"/></g><g><path d="m49 23h3v2h-3z" fill="#7aadf9"/></g><g><path d="m60 23h3v2h-3z" fill="#7aadf9"/></g><g><path d="m50.611 26.889h3v2h-3z" fill="#2862be" transform="matrix(.707 -.707 .707 .707 -4.458 45.017)"/></g><g><path d="m58.389 19.111h3v2h-3z" fill="#2862be" transform="matrix(.707 -.707 .707 .707 3.321 48.238)"/></g><g><path d="m58.889 26.389h2v3h-2z" fill="#2862be" transform="matrix(.707 -.707 .707 .707 -2.174 50.531)"/></g><g><path d="m51.111 18.611h2v3h-2z" fill="#2862be" transform="matrix(.707 -.707 .707 .707 1.048 42.75)"/></g><circle cx="56" cy="24" fill="#2862be" r="4"/><g><path d="m56 29c-2.757 0-5-2.243-5-5s2.243-5 5-5 5 2.243 5 5-2.243 5-5 5zm0-8c-1.654 0-3 1.346-3 3s1.346 3 3 3 3-1.346 3-3-1.346-3-3-3z" fill="#3279ea"/></g><g><path d="m55 23h2v2h-2z" fill="#7aadf9"/></g></g></svg>