<?xml version="1.0" encoding="iso-8859-1"?>
<!-- Generator: Adobe Illustrator 19.0.0, SVG Export Plug-In . SVG Version: 6.00 Build 0)  -->
<svg version="1.1" id="Capa_1" xmlns="http://www.w3.org/2000/svg" xmlns:xlink="http://www.w3.org/1999/xlink" x="0px" y="0px"
	 viewBox="0 0 511.999 511.999" style="enable-background:new 0 0 511.999 511.999;" xml:space="preserve">
<g>
	<path style="fill:#69280F;" d="M358.514,450.553l26.417-57.062c2.157-4.658,0.129-10.183-4.529-12.34
		c-4.661-2.157-10.183-0.128-12.34,4.53l-26.417,57.062c-2.157,4.658-0.129,10.183,4.529,12.34
		C350.814,457.23,356.347,455.231,358.514,450.553z"/>
	<path style="fill:#69280F;" d="M500.013,455.623c4.957-1.336,7.891-6.437,6.554-11.394l-15.382-57.062
		c-1.336-4.957-6.438-7.889-11.393-6.555c-4.957,1.336-7.891,6.437-6.554,11.394l15.382,57.062
		C489.955,454.024,495.056,456.959,500.013,455.623z"/>
</g>
<path style="fill:#823214;" d="M302.416,315.347l17.778-7.224l-3.907-5.801c-1.919-2.851-0.567-6.335,2.216-7.466l20.157-8.192
	c2.137-8.772,8.103-16.051,11.665-19.77c1.135-1.185,3.146-0.581,3.438,1.038l3.892,21.641l-0.059,0.001
	c2.629,2.192,4.577,5.47,4.848,6.135l20.406,27.026l86.191,12.751c5.886,0.871,11.361,3.33,15.884,7.033l18.305-10.14
	c2.495-1.384,5.741-0.818,7.588,1.576c1.932,2.503,1.412,6.127-0.953,8.227l-13.543,12.026c0.186,0.39,0.354,0.775,0.51,1.153
	c4.719,5.73,7.647,13.691,7.647,22.496c0,17.449-11.486,31.594-25.655,31.594c-10.132,0-18.889-7.235-23.059-17.737
	c-25.319,3.398-56.008,7.254-73.712,9.321c-8.125,0.949-15.857-3.704-18.825-11.326c-4.959-12.731-12.35-32.011-16.287-43.764
	c-0.688-2.055-1.797-3.961-3.374-5.448c-3.796-3.58-9.21-4.45-13.78-2.503c-7.464,3.181-16.159,0.622-21.254-5.693l-8.032-9.955
	C298.742,320.163,299.295,316.615,302.416,315.347z"/>
<polygon style="fill:#C8462D;" points="334.417,336.989 372.299,308.761 382.849,322.735 382.941,322.748 347.93,348.839 "/>
<path style="fill:#FFA98C;" d="M243.331,356.138c-105.871-68.674-103.827-65.579-107.787-70.924L66.031,191.34
	c-6.563-8.864-4.699-21.37,4.165-27.935c8.863-6.562,21.369-4.7,27.935,4.165l67.34,90.941l99.481,64.043
	c9.273,5.97,11.952,18.327,5.981,27.602C264.972,359.414,252.619,362.117,243.331,356.138z"/>
<path style="fill:#53618C;" d="M193.348,316.485c-3.548-9.615-12.709-15.997-22.951-15.997c-0.024,0-0.049,0-0.072,0l-65.095,0.19
	l29.519-103.033c4.683-16.348-4.772-33.396-21.119-38.08c-44.372-12.713-90.251,15.099-99.457,60.378L1.108,284.217
	c-6.839,33.638,18.841,65.208,53.228,65.287c7.771,0.004,49.213,0.106,49.213,0.106l-74.471,63.221
	c-10.299,8.744-11.561,24.182-2.817,34.481c8.759,10.317,24.195,11.549,34.483,2.818L186.229,343.6
	C194.059,336.953,196.903,326.121,193.348,316.485z"/>
<path style="fill:#64AFFF;" d="M5.733,319.35c-5.365-10.766-7.067-23.123-4.625-35.133l13.067-64.276
	c9.195-45.233,55.039-73.103,99.457-60.378c16.347,4.683,25.803,21.732,21.119,38.08l-29.519,103.033L5.733,319.35z"/>
<g>
	<circle style="fill:#FFB69E;" cx="133.522" cy="101.634" r="45.58"/>
	<path style="fill:#FFB69E;" d="M135.543,285.213l-69.512-93.874c-6.563-8.864-4.699-21.37,4.165-27.935
		c8.863-6.562,21.369-4.7,27.935,4.165l62.544,84.465l75.99-9.715c10.925-1.396,20.943,6.337,22.342,17.277
		c1.398,10.941-6.338,20.943-17.277,22.342l-87.602,11.198C147.048,294.042,139.903,291.1,135.543,285.213z"/>
</g>
<path style="fill:#78BEFF;" d="M137.468,220.696L98.129,167.57c-6.564-8.865-19.072-10.727-27.935-4.165
	c-8.864,6.563-10.728,19.071-4.165,27.935l38.602,52.131L137.468,220.696z"/>
<g>
</g>
<g>
</g>
<g>
</g>
<g>
</g>
<g>
</g>
<g>
</g>
<g>
</g>
<g>
</g>
<g>
</g>
<g>
</g>
<g>
</g>
<g>
</g>
<g>
</g>
<g>
</g>
<g>
</g>
</svg>
